<svg id="Calque_4" data-name="Calque 4" xmlns="http://www.w3.org/2000/svg" xmlns:xlink="http://www.w3.org/1999/xlink" width="350" height="350" viewBox="0 0 350 350">
  <defs>
    <style>
      .cls-1, .cls-2 {
        fill: none;
      }

      .cls-1, .cls-11, .cls-2, .cls-8 {
        stroke: #000;
        stroke-miterlimit: 10;
      }

      .cls-1 {
        stroke-width: 11px;
      }

      .cls-11, .cls-2, .cls-8 {
        stroke-width: 8px;
      }

      .cls-3 {
        clip-path: url(#clip-path);
      }

      .cls-4 {
        fill: #f7e4cd;
      }

      .cls-5 {
        fill: #efcaa5;
      }

      .cls-6 {
        fill: #f0d6b7;
      }

      .cls-7 {
        clip-path: url(#clip-path-2);
      }

      .cls-8 {
        fill: #605f60;
      }

      .cls-9 {
        fill: #d3d1d1;
      }

      .cls-10 {
        clip-path: url(#clip-path-3);
      }

      .cls-11 {
        fill: #6d6b6d;
      }

      .cls-12 {
        fill: #dcd9d8;
      }

      .cls-13 {
        fill: #231f20;
      }
    </style>
    <clipPath id="clip-path">
      <path class="cls-1" d="M172.83,298.5L46.11,206.43a3.69,3.69,0,0,1-1.34-4.12l48.4-149a3.69,3.69,0,0,1,3.51-2.55H253.32a3.69,3.69,0,0,1,3.51,2.55l48.4,149a3.69,3.69,0,0,1-1.34,4.12L177.17,298.5A3.69,3.69,0,0,1,172.83,298.5Z"/>
    </clipPath>
    <clipPath id="clip-path-2">
      <polygon class="cls-2" points="244.9 47.83 108.7 89.36 110.15 38.03 198.59 35.96 244.9 47.83"/>
    </clipPath>
    <clipPath id="clip-path-3">
      <path class="cls-2" d="M96.33,177.19L62,150.21a1.32,1.32,0,0,1-.48-1.28L80.19,46.79l38.34,0.59c0.24,0-.91,5.6-0.71,5.46h0L98.45,176.35A1.32,1.32,0,0,1,96.33,177.19Z"/>
    </clipPath>
  </defs>
  <title>jenkinlab</title>
  <g>
    <g>
      <g class="cls-3">
        <path class="cls-4" d="M171.76,297.73L47.18,207.21a5.5,5.5,0,0,1-2-6.15L92.77,54.6A5.5,5.5,0,0,1,98,50.79H252a5.5,5.5,0,0,1,5.24,3.8l47.59,146.46a5.5,5.5,0,0,1-2,6.15L178.24,297.73A5.5,5.5,0,0,1,171.76,297.73Z"/>
        <polygon class="cls-5" points="175 48.42 235.15 48.42 205.07 179.99 175 311.56 144.93 179.99 114.85 48.42 175 48.42"/>
        <polygon class="cls-6" points="99.56 45.2 113.25 41.14 146.14 177.33 179.03 313.51 97.95 191.6 16.87 69.69 99.56 45.2"/>
        <polygon class="cls-6" points="250.88 45.15 237.14 41.25 205.81 177.8 174.48 314.36 254.16 191.52 333.84 68.69 250.88 45.15"/>
        <g>
          <g class="cls-7">
            <polygon class="cls-8" points="244.9 47.83 109.52 90.45 110.15 38.03 198.59 35.96 244.9 47.83"/>
            <polygon class="cls-9" points="233.74 52.77 93.9 63.35 91.75 31.82 231.59 21.24 233.74 52.77"/>
          </g>
          <polygon class="cls-2" points="244.9 47.83 108.7 89.36 110.15 38.03 198.59 35.96 244.9 47.83"/>
        </g>
        <g>
          <g class="cls-10">
            <path class="cls-11" d="M96.33,177.19L62,150.21a1.32,1.32,0,0,1-.48-1.28L80.19,46.79l38.34,0.59c0.24,0-.91,5.6-0.71,5.46h0L98.45,176.35A1.32,1.32,0,0,1,96.33,177.19Z"/>
            <polygon class="cls-12" points="73.24 157.61 63.18 150.11 56.32 26.46 107.39 26.23 73.24 157.61"/>
          </g>
          <path class="cls-2" d="M96.33,177.19L62,150.21a1.32,1.32,0,0,1-.48-1.28L80.19,46.79l38.34,0.59c0.24,0-.91,5.6-0.71,5.46h0L98.45,176.35A1.32,1.32,0,0,1,96.33,177.19Z"/>
        </g>
        <path class="cls-13" d="M281.51,123.48c-5.34-11.91-14.11-23.4-31.74-19.29-3.39-5.57,2.67-9.66,7.14-10.33,10.39-1.57,23.11,10,26.27,18.67C284.39,115.84,286.29,122.33,281.51,123.48Z"/>
      </g>
      <path class="cls-1" d="M172.83,298.5L46.11,206.43a3.69,3.69,0,0,1-1.34-4.12l48.4-149a3.69,3.69,0,0,1,3.51-2.55H253.32a3.69,3.69,0,0,1,3.51,2.55l48.4,149a3.69,3.69,0,0,1-1.34,4.12L177.17,298.5A3.69,3.69,0,0,1,172.83,298.5Z"/>
    </g>
    <path class="cls-13" d="M166.72,103.6c-17.57-4.09-26.3,7.35-31.63,19.23-4.76-1.15-2.86-7.62-1.66-10.92,3.15-8.65,15.82-20.16,26.18-18.6,4.46,0.67,10.49,4.75,7.11,10.29m85.62,20,0.83,0c4,8.25,7.41,17,12.41,24.27-3.35,7.82-25.41,14.73-25.07.7,4.77-2.08,13-.43,17.23-3.09-2.44-6.71-6-12.42-5.41-21.91m-76.62.21c3.77,6.91,5,14.16,10.35,19.38,2.41,2.35,7.1,5.21,4.78,11.75-0.54,1.54-4.51,5-6.81,5.65-8.37,2.47-27.88.51-21.28-9.93,6.93,0.32,16.23,4.5,21.41-.53-4-6.35-11.06-18.92-8.45-26.33M249.19,194c-12.61,8.1-26.66,16.9-47.32,14.86-4.41-3.84-6.1-12.38-1.81-18,2.23,3.84.83,10.89,7,12,11.72,2,25.36-7.17,33.8-10.38,5.23-8.81-.45-12.06-5.16-17.73-9.64-11.62-22.58-26-22.11-43.43,3.9-2.83,4.23,4.31,4.79,5.61,5,11.78,17.7,26.85,27,36.94,2.27,2.48,6,4.87,6.42,6.51,1.2,4.78-3.12,10.5-2.62,13.68M83,185.5c-4-2.26-4.89-12.19-9.53-12.47-6.63-.4-5.42,12.88-5.39,20.66-4.56-4.14-5.36-16.9-2-23.45-3.82-1.88-5.53,2.07-7.65,3.46,2.72-19.79,28.94-9.18,24.59,11.8m174.22,16.77c-5.87,11.17-14.17,23.47-31.39,23.83-0.35-3.61-.62-9.1,0-11.27,13.16-1.26,21.29-8,31.37-12.56m-82.5,7.24c11,5.78,31.17,6.4,46.09,6,0.8,3.27.78,7.31,0.81,11.3-19.19,1-41.88-3.79-46.91-17.26m-2.09,10.77c7.6,19.07,33.7,16.87,55.71,16.35-1,2.48-3.07,5.4-5.68,6.46-7.06,2.87-26.51,5-36.3-.15-6.21-3.3-10.2-10.76-13.6-15.13-1.64-2.11-9.83-7.51-.12-7.52"/>
  </g>
</svg>
